<?xml version="1.0" standalone="no"?>
<!DOCTYPE svg PUBLIC "-//W3C//DTD SVG 20010904//EN"
 "http://www.w3.org/TR/2001/REC-SVG-20010904/DTD/svg10.dtd">
<svg version="1.0" xmlns="http://www.w3.org/2000/svg"
 width="400.000000pt" height="400.000000pt" viewBox="0 0 400.000000 400.000000"
 preserveAspectRatio="xMidYMid meet">
<metadata>
Created by potrace 1.11, written by Peter Selinger 2001-2013
</metadata>
<g transform="translate(0.000000,400.000000) scale(0.100000,-0.100000)"
fill="#000000" stroke="none">
<path d="M0 2000 l0 -2000 1423 1 1422 0 -90 25 c-49 13 -150 40 -222 59 -73
19 -193 51 -265 70 -73 19 -191 50 -262 68 l-130 34 125 41 c68 22 428 140
799 262 371 123 679 225 684 228 15 9 0 -12 -274 -373 -146 -192 -276 -365
-288 -382 l-23 -33 550 0 551 0 0 727 c0 427 -4 723 -9 717 -5 -5 -75 -97
-156 -204 l-147 -195 -66 -7 c-59 -7 -552 -46 -1342 -108 -278 -22 -767 -61
-1130 -90 -135 -11 -259 -20 -275 -20 -21 0 -52 15 -93 45 -34 25 -65 45 -69
45 -9 0 -73 -91 -73 -104 0 -4 48 -5 108 -1 l107 6 100 -71 c55 -39 111 -78
125 -88 14 -9 102 -71 195 -138 94 -66 181 -126 193 -133 38 -20 18 -24 -40
-8 -51 15 -199 54 -438 116 -293 76 -475 123 -477 125 -1 1 24 42 57 91 33 49
58 90 56 92 -1 2 -79 -4 -172 -12 -93 -8 -213 -17 -267 -21 -97 -7 -97 -7 -80
-27 18 -20 17 -20 -12 -13 -16 4 -31 8 -31 9 -1 1 22 162 52 357 29 195 67
445 83 555 17 110 66 440 111 734 78 522 80 537 80 720 0 103 3 256 7 340 l6
152 182 -448 c100 -247 188 -463 196 -481 l14 -33 227 158 c466 323 1407 978
1598 1112 52 37 101 70 108 75 9 5 179 -327 642 -1256 l629 -1263 0 1273 1
1272 -1800 0 -1800 0 -2 -187 c-2 -123 -6 -181 -12 -168 -5 11 -39 94 -76 185
l-68 165 -121 3 -121 3 0 -2001z"/>
<path d="M2379 2763 c-13 -16 -12 -17 4 -4 16 13 21 21 13 21 -2 0 -10 -8 -17
-17z"/>
<path d="M2269 2653 c-13 -16 -12 -17 4 -4 16 13 21 21 13 21 -2 0 -10 -8 -17
-17z"/>
<path d="M2179 2373 c-13 -16 -12 -17 4 -4 9 7 17 15 17 17 0 8 -8 3 -21 -13z"/>
</g>
</svg>
